<svg xmlns="http://www.w3.org/2000/svg" viewBox="0 0 576 512" fill="#000000">
<!-- fa-map-location-dot icon -->
<path d="M408 120c0 54.6-73.1 151.9-105.2 192c-7.7 9.6-22 9.6-29.6 0C241.1 271.9 168 174.6 168 120C168 53.7 221.7 0 288 0s120 53.7 120 120zm8 80.4c3.5-6.9 6.7-13.8 9.6-20.6c.5-1.2 1-2.5 1.5-3.7l116-46.4C558.9 123.4 576 135 576 152V422.8c0 9.8-6 18.6-15.1 22.3L416 503V200.4zM137.6 138.3c2.4 14.1 7.2 28.3 12.8 41.5c2.9 6.8 6.1 13.7 9.6 20.6V451.8L32.9 402.7C13.9 395.2 0 376.9 0 356.5V85.6c0-13 10.7-25.3 25.6-25.6c4.7-.1 9.4 1.1 13.6 3.6l98.4 74.7z"/>
</svg>
